[Header]
FileType HTR
DataType HTRS
FileVersion 1
NumSegments 22
NumFrames 8
DataFrameRate 24
EulerRotationOrder ZYX
CalibrationUnits mm
RotationUnits Degrees
GlobalAxisofGravity Y
BoneLengthAxis Y
ScaleFactor 1.0
[SegmentNames&Hierarchy]
reference	GLOBAL
Hips	reference
Spine	Hips
Spine1	Spine
Neck	Spine1
Head	Neck
LeftShoulder	Spine1
LeftArm	LeftShoulder
LeftForeArm	LeftArm
LeftHand	LeftForeArm
RightShoulder	Spine1
RightArm	RightShoulder
RightForeArm	RightArm
RightHand	RightForeArm
LeftUpLeg	Hips
LeftLeg	LeftUpLeg
LeftFoot	LeftLeg
LeftToeBase	LeftFoot
RightUpLeg	Hips
RightLeg	RightUpLeg
RightFoot	RightLeg
RightToeBase	RightFoot
[BasePosition]
reference	0	0	0	0	0	0	1
Hips	0	0	0	0	0	0	1
Spine	0	0	0	0	-0	90	1
Spine1	0	0	0	0	0	0	1
Neck	0	0	0	-7.352327771	-7.352327771	90	1
Head	0	0	0	0	-0	90	1
LeftShoulder	0	0	0	0	0	0	1
LeftArm	0	0	0	0	0	0	1
LeftForeArm	0	0	0	0	0	0	1
LeftHand	0	0	0	0	0	0	1
RightShoulder	0	0	0	0	-0	180	1
RightArm	0	0	0	0	-0	180	1
RightForeArm	0	0	0	0	-0	180	1
RightHand	0	0	0	0	-0	180	1
LeftUpLeg	0	0	0	0	-0	-90	1
LeftLeg	0	0	0	0	-0	-90	1
LeftFoot	0	0	0	66.57146043	-66.57146043	-90	1
LeftToeBase	0	0	0	0	-90	0	1
RightUpLeg	0	0	0	0	-0	-90	1
RightLeg	0	0	0	0	-0	-90	1
RightFoot	0	0	0	66.57146043	-66.57146043	-90	1
RightToeBase	0	0	0	0	-90	0	1
[reference]
31	0	0	0	0	-0	0	1.0
32	0	0	0	0	-0	0	1.0
33	0	0	0	0	-0	0	1.0
34	0	0	0	0	-0	0	1.0
35	0	0	0	0	-0	0	1.0
36	0	0	0	0	-0	0	1.0
37	0	0	0	0	-0	0	1.0
38	0	0	0	0	-0	0	1.0
[Hips]
31	1.785210133	9.064069748	-2.223860025	-17.87004089	-100.564209	21.47067261	1.0
32	1.73013258	9.203691483	-2.030936241	-13.15661621	-96.5488739	15.612607	1.0
33	1.657868743	9.190652847	-1.853525043	2.79442668	-93.3715744	-1.691311955	1.0
34	1.574015498	8.979507446	-1.695070505	26.54255676	-93.01307678	-26.19842911	1.0
35	1.501696706	8.678808212	-1.54183805	29.80865669	-94.00868225	-29.96323395	1.0
36	1.439368129	8.492851257	-1.373702049	7.790833473	-95.6639328	-6.463419914	1.0
37	1.356611848	8.401879311	-1.153589964	13.28892517	-97.13315582	-12.94644165	1.0
38	1.258419871	8.357713699	-0.8811581731	22.38380051	-96.35607147	-23.18723297	1.0
[Spine]
31	0	0.7457100153	0	-6.808913231	2.934295177	-83.81793976	1.0
32	0	0.7457100153	0	-5.201776505	1.110430837	-85.11289978	1.0
33	0	0.7457100153	0	-3.497062922	-0.1014775857	-86.32226563	1.0
34	0	0.7457100153	0	-3.508697033	0.4013565183	-87.90438843	1.0
35	0	0.7457100153	0	-4.15728569	1.547238588	-88.7585907	1.0
36	0	0.7457100153	0	-6.815559864	3.22104454	-87.83126831	1.0
37	0	0.7457100153	0	-6.334938526	3.847954273	-89.18574524	1.0
38	0	0.7457100153	0	-5.003091812	2.64127779	-89.90301514	1.0
[Spine1]
31	0	2.140589952	0	7.226964951	0.7849935293	1.22764492	1.0
32	0	2.140589952	0	6.064570904	0.2578190267	0.5436583757	1.0
33	0	2.140589952	0	3.730875254	-0.05388909951	-0.6249790192	1.0
34	0	2.140589952	0	2.986533165	0.1382815838	-1.314632893	1.0
35	0	2.140589952	0	4.150008678	0.5506257415	-1.24233973	1.0
36	0	2.140589952	0	7.792768478	1.116760969	-1.318697929	1.0
37	0	2.140589952	0	8.980847359	1.357328773	-1.123983383	1.0
38	0	2.140589952	0	8.939376831	0.9886995554	-1.681968093	1.0
[Neck]
31	0	2.32246995	0	-15.59893036	8.119599342	-94.19462585	1.0
32	0	2.32246995	0	-15.18549728	7.764509201	-94.14793396	1.0
33	0	2.32246995	0	-13.21203041	7.063231945	-93.76983643	1.0
34	0	2.32246995	0	-8.213846207	6.364200592	-93.55981445	1.0
35	0	2.32246995	0	-8.908035278	6.115766525	-93.60044098	1.0
36	0	2.32246995	0	-12.49329185	6.045286179	-94.21212769	1.0
37	0	2.32246995	0	-15.0042963	5.719150543	-94.7911377	1.0
38	0	2.32246995	0	-14.82326698	5.642896175	-95.40441895	1.0
[Head]
31	0	1.409579992	0.1818799973	-3.639271259	1.40935874	-92.05296326	1.0
32	0	1.409579992	0.1818799973	-3.138193846	0.3923642635	-92.95628357	1.0
33	0	1.409579992	0.1818799973	-1.481443763	0.1571482271	-92.3367691	1.0
34	0	1.409579992	0.1818799973	-5.932191849	-0.9629694223	-90.42337036	1.0
35	0	1.409579992	0.1818799973	-6.764529228	-1.151837945	-90.96569824	1.0
36	0	1.409579992	0.1818799973	-6.086795807	-1.069366813	-91.14205933	1.0
37	0	1.409579992	0.1818799973	-5.108573914	-1.304612875	-90.71737671	1.0
38	0	1.409579992	0.1818799973	-4.863091946	-1.415126204	-89.94616699	1.0
[LeftShoulder]
31	0.3668199778	1.946700096	-0.02662999928	-17.70709038	-10.9296236	-1.105799556	1.0
32	0.3668199778	1.946700096	-0.02662999928	-18.61558914	-10.79055023	-1.200395465	1.0
33	0.3668199778	1.946700096	-0.02662999928	-17.50751877	-11.22001648	-2.281588078	1.0
34	0.3668199778	1.946700096	-0.02662999928	-15.7450037	-12.04227924	-3.022448063	1.0
35	0.3668199778	1.946700096	-0.02662999928	-16.76792336	-11.09514618	-1.948058367	1.0
36	0.3668199778	1.946700096	-0.02662999928	-17.32989311	-9.966945648	-1.584518552	1.0
37	0.3668199778	1.946700096	-0.02662999928	-16.72452545	-9.999756813	-2.091236353	1.0
38	0.3668199778	1.946700096	-0.02662999928	-15.98933792	-10.25172234	-2.548620224	1.0
[LeftArm]
31	1.140689969	0	0	46.04790878	6.484414101	-67.44597626	1.0
32	1.140689969	0	0	48.75274277	7.049785614	-68.33250427	1.0
33	1.140689969	0	0	50.25380325	6.645728111	-67.54227448	1.0
34	1.140689969	0	0	49.15967178	5.26456356	-66.68717957	1.0
35	1.140689969	0	0	49.01739502	4.983352661	-68.33333588	1.0
36	1.140689969	0	0	48.63258362	4.419730663	-69.29386902	1.0
37	1.140689969	0	0	48.91979599	4.899532795	-69.16038513	1.0
38	1.140689969	0	0	49.16313171	5.310320854	-68.73756409	1.0
[LeftForeArm]
31	2.749800205	0	0	-147.7258606	-43.45794678	164.0488586	1.0
32	2.749800205	0	0	-144.9493713	-42.75621796	162.974411	1.0
33	2.749800205	0	0	-143.8310242	-42.15289307	162.602417	1.0
34	2.749800205	0	0	-145.9582825	-42.23914337	163.209137	1.0
35	2.749800205	0	0	-146.8556671	-42.98125076	163.7051849	1.0
36	2.749800205	0	0	-149.1881561	-42.96654892	164.7350159	1.0
37	2.749800205	0	0	-148.9195557	-43.19278717	164.6309204	1.0
38	2.749800205	0	0	-148.1072388	-43.01132584	163.5937042	1.0
[LeftHand]
31	2.295179844	0	0	-6.922832966	-23.4511261	2.191196918	1.0
32	2.295179844	0	0	-7.353403568	-23.87467957	2.603996515	1.0
33	2.295179844	0	0	-7.714263439	-23.85448074	2.715786457	1.0
34	2.295179844	0	0	-8.343513489	-23.37653351	2.703026295	1.0
35	2.295179844	0	0	-7.375335693	-22.79406548	2.735237122	1.0
36	2.295179844	0	0	-7.148240089	-22.91737366	1.731503606	1.0
37	2.295179844	0	0	-6.828767776	-23.13709831	1.277084947	1.0
38	2.295179844	0	0	-8.365533829	-22.32612801	0.3262831271	1.0
[RightShoulder]
31	-0.3601199985	1.946700096	-0.02662999928	-7.550033092	3.487218142	175.2807922	1.0
32	-0.3601199985	1.946700096	-0.02662999928	-7.732251644	3.122047663	175.9875336	1.0
33	-0.3601199985	1.946700096	-0.02662999928	-6.423703671	3.48974061	177.3218384	1.0
34	-0.3601199985	1.946700096	-0.02662999928	-5.153079987	4.083135605	177.9898376	1.0
35	-0.3601199985	1.946700096	-0.02662999928	-6.707974434	3.693687439	176.7087555	1.0
36	-0.3601199985	1.946700096	-0.02662999928	-7.199755669	4.041040897	176.0317535	1.0
37	-0.3601199985	1.946700096	-0.02662999928	-6.341890335	4.419316292	176.4485626	1.0
38	-0.3601199985	1.946700096	-0.02662999928	-5.388421059	4.882208824	177.2890625	1.0
[RightArm]
31	-1.140689969	0	0	58.41040039	1.407230258	-108.6579361	1.0
32	-1.140689969	0	0	59.0252533	0.9878948331	-109.3956528	1.0
33	-1.140689969	0	0	57.09062576	1.294749022	-110.3549423	1.0
34	-1.140689969	0	0	56.25698471	2.021764278	-110.2849045	1.0
35	-1.140689969	0	0	56.46773529	1.531211376	-108.3744659	1.0
36	-1.140689969	0	0	55.79029846	1.555951834	-106.8730774	1.0
37	-1.140689969	0	0	57.10229492	0.841452837	-106.0629196	1.0
38	-1.140689969	0	0	57.09220886	-0.1634878963	-106.1312103	1.0
[RightForeArm]
31	-2.749800205	0	0	-110.3372574	40.87777328	29.99259567	1.0
32	-2.749800205	0	0	-109.3365402	40.41316986	30.30615234	1.0
33	-2.749800205	0	0	-111.1954651	41.12008667	29.46261597	1.0
34	-2.749800205	0	0	-109.789032	40.8237648	30.27749634	1.0
35	-2.749800205	0	0	-110.6885071	41.20601654	29.85056686	1.0
36	-2.749800205	0	0	-112.1921234	41.95226288	29.2336731	1.0
37	-2.749800205	0	0	-109.8428955	41.49151611	31.04708862	1.0
38	-2.749800205	0	0	-109.3452148	41.43331146	32.00643158	1.0
[RightHand]
31	-2.295179844	0	0	-5.193026543	20.37906265	161.0509338	1.0
32	-2.295179844	0	0	-5.581136703	20.24396133	160.2700195	1.0
33	-2.295179844	0	0	-4.804913998	20.06721687	160.1348572	1.0
34	-2.295179844	0	0	-5.264513016	19.82364655	160.4993286	1.0
35	-2.295179844	0	0	-4.813493729	19.93777466	160.5594788	1.0
36	-2.295179844	0	0	-4.216039658	20.36671448	160.3185425	1.0
37	-2.295179844	0	0	-5.837618828	20.51673317	160.9035492	1.0
38	-2.295179844	0	0	-7.01006794	20.44643402	161.7730713	1.0
[LeftUpLeg]
31	0.9094099998	0	0	-3.560950518	7.902394772	91.60270691	1.0
32	0.9094099998	0	0	-8.852789879	7.577813625	91.95924377	1.0
33	0.9094099998	0	0	-13.50220776	5.100949764	94.65943909	1.0
34	0.9094099998	0	0	-16.21219635	5.127556324	99.77322388	1.0
35	0.9094099998	0	0	-18.17943573	9.843782425	104.39431	1.0
36	0.9094099998	0	0	-18.32910538	10.68336487	110.8764191	1.0
37	0.9094099998	0	0	-13.90733051	4.375176907	114.6812439	1.0
38	0.9094099998	0	0	-10.40433693	-1.618682623	114.8095169	1.0
[LeftLeg]
31	0	-4.498080254	0	20.48262024	4.198123932	80.97434998	1.0
32	0	-4.498080254	0	32.46187973	0.06142348051	78.71061707	1.0
33	0	-4.498080254	0	43.29918289	-0.7064432502	74.07071686	1.0
34	0	-4.498080254	0	49.15351105	5.279390812	74.89009857	1.0
35	0	-4.498080254	0	51.74082184	2.832683086	75.37050629	1.0
36	0	-4.498080254	0	46.93000412	-0.09217835218	73.50132751	1.0
37	0	-4.498080254	0	35.69153214	2.025703192	75.89427185	1.0
38	0	-4.498080254	0	24.88441849	3.544503212	81.24150848	1.0
[LeftFoot]
31	0	-3.729400158	0	-60.87117004	105.8394852	-24.18394852	1.0
32	0	-3.729400158	0	-28.7616806	97.94234467	-1.798434734	1.0
33	0	-3.729400158	0	-4.993591309	108.0406265	28.3739624	1.0
34	0	-3.729400158	0	-19.35767746	107.4622421	20.88010597	1.0
35	0	-3.729400158	0	-29.33086586	108.7578583	14.66884804	1.0
36	0	-3.729400158	0	-34.40910721	110.8609009	11.50781441	1.0
37	0	-3.729400158	0	-40.58062744	111.8249817	2.864334106	1.0
38	0	-3.729400158	0	-47.60346222	113.5439072	-9.561169624	1.0
[LeftToeBase]
31	0	-0.5911099911	1.364109993	0	0	0	1.0
32	0	-0.5911099911	1.364109993	0	0	0	1.0
33	0	-0.5911099911	1.364109993	0	0	0	1.0
34	0	-0.5911099911	1.364109993	0	0	0	1.0
35	0	-0.5911099911	1.364109993	0	0	0	1.0
36	0	-0.5911099911	1.364109993	0	0	0	1.0
37	0	-0.5911099911	1.364109993	0	0	0	1.0
38	0	-0.5911099911	1.364109993	0	0	0	1.0
[RightUpLeg]
31	-0.9094099998	0	0	-11.13056087	-14.99501038	93.55588531	1.0
32	-0.9094099998	0	0	-9.007073402	-13.76083755	93.71216583	1.0
33	-0.9094099998	0	0	-6.194121838	-9.564580917	92.72718048	1.0
34	-0.9094099998	0	0	-4.744795322	-9.683239937	92.19752502	1.0
35	-0.9094099998	0	0	-5.001701355	-14.5923481	91.96969604	1.0
36	-0.9094099998	0	0	-8.701270103	-11.85668564	92.18301392	1.0
37	-0.9094099998	0	0	-8.46667099	-12.37964916	90.9133606	1.0
38	-0.9094099998	0	0	-7.751511574	-10.75802422	88.61476135	1.0
[RightLeg]
31	0	-4.498080254	0	31.68302155	2.014613867	85.67578125	1.0
32	0	-4.498080254	0	25.76382637	-0.332693696	85.18793488	1.0
33	0	-4.498080254	0	20.24919319	-2.248364925	87.41609192	1.0
34	0	-4.498080254	0	21.61730194	-3.527647018	86.13449097	1.0
35	0	-4.498080254	0	24.86621857	-2.005069256	82.88191223	1.0
36	0	-4.498080254	0	31.75714302	7.213547707	88.29463196	1.0
37	0	-4.498080254	0	34.09145355	8.041435242	85.70823669	1.0
38	0	-4.498080254	0	36.30656815	6.012898445	82.9517746	1.0
[RightFoot]
31	0	-3.729400158	0	78.28363037	42.94976044	115.0556259	1.0
32	0	-3.729400158	0	97.07302856	34.33024597	118.8265991	1.0
33	0	-3.729400158	0	97.43199158	55.2793045	116.009613	1.0
34	0	-3.729400158	0	78.86109161	60.11231613	111.0643463	1.0
35	0	-3.729400158	0	74.87597656	61.90241241	122.1819992	1.0
36	0	-3.729400158	0	44.80936432	61.31292725	97.35572815	1.0
37	0	-3.729400158	0	42.45373917	59.94356537	99.16257477	1.0
38	0	-3.729400158	0	45.61611938	57.13045883	103.731163	1.0
[RightToeBase]
31	0	-0.5911099911	1.364109993	0	0	0	1.0
32	0	-0.5911099911	1.364109993	0	0	0	1.0
33	0	-0.5911099911	1.364109993	0	0	0	1.0
34	0	-0.5911099911	1.364109993	0	0	0	1.0
35	0	-0.5911099911	1.364109993	0	0	0	1.0
36	0	-0.5911099911	1.364109993	0	0	0	1.0
37	0	-0.5911099911	1.364109993	0	0	0	1.0
38	0	-0.5911099911	1.364109993	0	0	0	1.0
[EndOfFile]
